ffmpeg version 4.0.2 Copyright (c) 2000-2018 the FFmpeg developers
  built with gcc 7 (Ubuntu 7.4.0-1ubuntu1~18.04.1)
  configuration: --disable-zlib --disable-doc --prefix=/home/sgeorgiou/GitHub/phoronixDataSet/tools/tasks_test/ffmpeg
  libavutil      56. 14.100 / 56. 14.100
  libavcodec     58. 18.100 / 58. 18.100
  libavformat    58. 12.100 / 58. 12.100
  libavdevice    58.  3.100 / 58.  3.100
  libavfilter     7. 16.100 /  7. 16.100
  libswscale      5.  1.100 /  5.  1.100
  libswresample   3.  1.100 /  3.  1.100
[NULL @ 0x55a44905d080] non-existing PPS 0 referenced
[h264 @ 0x55a44905d080] non-existing PPS 0 referenced
[h264 @ 0x55a44905d080] decode_slice_header error
[h264 @ 0x55a44905d080] non-existing PPS 0 referenced
[h264 @ 0x55a44905d080] decode_slice_header error
[h264 @ 0x55a44905d080] non-existing PPS 0 referenced
[h264 @ 0x55a44905d080] decode_slice_header error
[h264 @ 0x55a44905d080] non-existing PPS 0 referenced
[h264 @ 0x55a44905d080] decode_slice_header error
[h264 @ 0x55a44905d080] non-existing PPS 0 referenced
[h264 @ 0x55a44905d080] decode_slice_header error
[h264 @ 0x55a44905d080] non-existing PPS 0 referenced
[h264 @ 0x55a44905d080] decode_slice_header error
[h264 @ 0x55a44905d080] no frame!
[mpeg2video @ 0x55a449033dc0] Invalid frame dimensions 0x0.
    Last message repeated 1 times
[h264 @ 0x55a44905d080] non-existing PPS 0 referenced
    Last message repeated 1 times
[h264 @ 0x55a44905d080] decode_slice_header error
[h264 @ 0x55a44905d080] non-existing PPS 0 referenced
[h264 @ 0x55a44905d080] decode_slice_header error
[h264 @ 0x55a44905d080] non-existing PPS 0 referenced
[h264 @ 0x55a44905d080] decode_slice_header error
[h264 @ 0x55a44905d080] non-existing PPS 0 referenced
[h264 @ 0x55a44905d080] decode_slice_header error
[h264 @ 0x55a44905d080] non-existing PPS 0 referenced
[h264 @ 0x55a44905d080] decode_slice_header error
[h264 @ 0x55a44905d080] non-existing PPS 0 referenced
[h264 @ 0x55a44905d080] decode_slice_header error
[h264 @ 0x55a44905d080] no frame!
[mpeg2video @ 0x55a449033dc0] Invalid frame dimensions 0x0.
[h264 @ 0x55a44905d080] non-existing PPS 0 referenced
    Last message repeated 1 times
[h264 @ 0x55a44905d080] decode_slice_header error
[h264 @ 0x55a44905d080] non-existing PPS 0 referenced
[h264 @ 0x55a44905d080] decode_slice_header error
[h264 @ 0x55a44905d080] non-existing PPS 0 referenced
[h264 @ 0x55a44905d080] decode_slice_header error
[h264 @ 0x55a44905d080] non-existing PPS 0 referenced
[h264 @ 0x55a44905d080] decode_slice_header error
[h264 @ 0x55a44905d080] non-existing PPS 0 referenced
[h264 @ 0x55a44905d080] decode_slice_header error
[h264 @ 0x55a44905d080] non-existing PPS 0 referenced
[h264 @ 0x55a44905d080] decode_slice_header error
[h264 @ 0x55a44905d080] no frame!
[mpeg2video @ 0x55a449033dc0] Invalid frame dimensions 0x0.
[h264 @ 0x55a44905d080] non-existing PPS 0 referenced
    Last message repeated 1 times
[h264 @ 0x55a44905d080] decode_slice_header error
[h264 @ 0x55a44905d080] non-existing PPS 0 referenced
[h264 @ 0x55a44905d080] decode_slice_header error
[h264 @ 0x55a44905d080] non-existing PPS 0 referenced
[h264 @ 0x55a44905d080] decode_slice_header error
[h264 @ 0x55a44905d080] non-existing PPS 0 referenced
[h264 @ 0x55a44905d080] decode_slice_header error
[h264 @ 0x55a44905d080] non-existing PPS 0 referenced
[h264 @ 0x55a44905d080] decode_slice_header error
[h264 @ 0x55a44905d080] non-existing PPS 0 referenced
[h264 @ 0x55a44905d080] decode_slice_header error
[h264 @ 0x55a44905d080] no frame!
[mpeg2video @ 0x55a449033dc0] Invalid frame dimensions 0x0.
[h264 @ 0x55a44905d080] non-existing PPS 0 referenced
    Last message repeated 1 times
[h264 @ 0x55a44905d080] decode_slice_header error
[h264 @ 0x55a44905d080] non-existing PPS 0 referenced
[h264 @ 0x55a44905d080] decode_slice_header error
[h264 @ 0x55a44905d080] non-existing PPS 0 referenced
[h264 @ 0x55a44905d080] decode_slice_header error
[h264 @ 0x55a44905d080] non-existing PPS 0 referenced
[h264 @ 0x55a44905d080] decode_slice_header error
[h264 @ 0x55a44905d080] non-existing PPS 0 referenced
[h264 @ 0x55a44905d080] decode_slice_header error
[h264 @ 0x55a44905d080] non-existing PPS 0 referenced
[h264 @ 0x55a44905d080] decode_slice_header error
[h264 @ 0x55a44905d080] no frame!
[mpeg2video @ 0x55a449033dc0] Invalid frame dimensions 0x0.
[h264 @ 0x55a44905d080] non-existing PPS 0 referenced
    Last message repeated 1 times
[h264 @ 0x55a44905d080] decode_slice_header error
[h264 @ 0x55a44905d080] non-existing PPS 0 referenced
[h264 @ 0x55a44905d080] decode_slice_header error
[h264 @ 0x55a44905d080] non-existing PPS 0 referenced
[h264 @ 0x55a44905d080] decode_slice_header error
[h264 @ 0x55a44905d080] non-existing PPS 0 referenced
[h264 @ 0x55a44905d080] decode_slice_header error
[h264 @ 0x55a44905d080] non-existing PPS 0 referenced
[h264 @ 0x55a44905d080] decode_slice_header error
[h264 @ 0x55a44905d080] non-existing PPS 0 referenced
[h264 @ 0x55a44905d080] decode_slice_header error
[h264 @ 0x55a44905d080] no frame!
[h264 @ 0x55a44905d080] non-existing PPS 0 referenced
    Last message repeated 1 times
[h264 @ 0x55a44905d080] decode_slice_header error
[h264 @ 0x55a44905d080] non-existing PPS 0 referenced
[h264 @ 0x55a44905d080] decode_slice_header error
[h264 @ 0x55a44905d080] non-existing PPS 0 referenced
[h264 @ 0x55a44905d080] decode_slice_header error
[h264 @ 0x55a44905d080] non-existing PPS 0 referenced
[h264 @ 0x55a44905d080] decode_slice_header error
[h264 @ 0x55a44905d080] non-existing PPS 0 referenced
[h264 @ 0x55a44905d080] decode_slice_header error
[h264 @ 0x55a44905d080] non-existing PPS 0 referenced
[h264 @ 0x55a44905d080] decode_slice_header error
[h264 @ 0x55a44905d080] no frame!
[mpeg2video @ 0x55a449033dc0] Invalid frame dimensions 0x0.
    Last message repeated 1 times
[h264 @ 0x55a44905d080] non-existing PPS 0 referenced
    Last message repeated 1 times
[h264 @ 0x55a44905d080] decode_slice_header error
[h264 @ 0x55a44905d080] non-existing PPS 0 referenced
[h264 @ 0x55a44905d080] decode_slice_header error
[h264 @ 0x55a44905d080] non-existing PPS 0 referenced
[h264 @ 0x55a44905d080] decode_slice_header error
[h264 @ 0x55a44905d080] non-existing PPS 0 referenced
[h264 @ 0x55a44905d080] decode_slice_header error
[h264 @ 0x55a44905d080] non-existing PPS 0 referenced
[h264 @ 0x55a44905d080] decode_slice_header error
[h264 @ 0x55a44905d080] non-existing PPS 0 referenced
[h264 @ 0x55a44905d080] decode_slice_header error
[h264 @ 0x55a44905d080] no frame!
[mpeg2video @ 0x55a449033dc0] Invalid frame dimensions 0x0.
    Last message repeated 1 times
[mpegts @ 0x55a44902d800] PES packet size mismatch
    Last message repeated 2 times
Input #0, mpegts, from 'HD2-h264.ts':
  Duration: 00:01:04.75, start: 31309.702867, bitrate: 37500 kb/s
  Program 128 
    Metadata:
      service_name    : DPC.TV10
      service_provider: DPC
    Stream #0:0[0x1ff]: Video: mpeg2video (Main) ([2][0][0][0] / 0x0002), yuv420p(tv, progressive), 720x576 [SAR 16:15 DAR 4:3], 25 fps, 25 tbr, 90k tbn, 50 tbc
    Stream #0:1[0x200](ger): Audio: mp2 ([3][0][0][0] / 0x0003), 48000 Hz, stereo, fltp, 192 kb/s (clean effects)
  Program 129 
    Metadata:
      service_name    : DPC.TV11
      service_provider: DPC
    Stream #0:2[0x2ff]: Video: h264 (Main) ([27][0][0][0] / 0x001B), yuv420p(progressive), 1920x1088 [SAR 1:1 DAR 30:17], 29.97 fps, 29.97 tbr, 90k tbn
    Stream #0:3[0x304](eng): Audio: ac3 ([6][0][0][0] / 0x0006), 48000 Hz, stereo, fltp, 384 kb/s
Stream mapping:
  Stream #0:2 -> #0:0 (h264 (native) -> dvvideo (native))
  Stream #0:1 -> #0:1 (mp2 (native) -> pcm_s16le (native))
Press [q] to stop, [?] for help
Output #0, dv, to '/dev/null':
  Metadata:
    encoder         : Lavf58.12.100
    Stream #0:0: Video: dvvideo, yuv411p, 720x480 [SAR 20:17 DAR 30:17], q=2-31, 200 kb/s, 29.97 fps, 29.97 tbn, 29.97 tbc
    Metadata:
      encoder         : Lavc58.18.100 dvvideo
    Stream #0:1(ger): Audio: pcm_s16le, 48000 Hz, stereo, s16, 1536 kb/s (clean effects)
    Metadata:
      encoder         : Lavc58.18.100 pcm_s16le
[dv @ 0x55a449071bc0] Can't process DV frame #0. Insufficient audio data or severe sync problem.
    Last message repeated 2 times
[h264 @ 0x55a4490e4cc0] Increasing reorder buffer to 1
frame=  129 fps=0.0 q=-0.0 size=   13568kB time=00:00:04.44 bitrate=25010.5kbits/s dup=8 drop=0 speed=8.86x    frame=  293 fps=292 q=-0.0 size=   32768kB time=00:00:10.20 bitrate=26306.6kbits/s dup=8 drop=0 speed=10.2x    frame=  465 fps=309 q=-0.0 size=   52992kB time=00:00:15.94 bitrate=27233.9kbits/s dup=8 drop=0 speed=10.6x    frame=  638 fps=318 q=-0.0 size=   73216kB time=00:00:21.58 bitrate=27793.4kbits/s dup=8 drop=0 speed=10.7x    frame=  774 fps=308 q=-0.0 size=   89088kB time=00:00:26.16 bitrate=27893.5kbits/s dup=10 drop=0 speed=10.4x    frame=  931 fps=309 q=-0.0 size=  107520kB time=00:00:31.34 bitrate=28097.5kbits/s dup=10 drop=2 speed=10.4x    frame= 1098 fps=312 q=-0.0 size=  127232kB time=00:00:36.84 bitrate=28289.0kbits/s dup=12 drop=2 speed=10.5x    frame= 1259 fps=313 q=-0.0 size=  145920kB time=00:00:42.14 bitrate=28361.3kbits/s dup=13 drop=2 speed=10.5x    frame= 1419 fps=314 q=-0.0 size=  164864kB time=00:00:47.62 bitrate=28361.2kbits/s dup=15 drop=4 speed=10.5x    frame= 1582 fps=315 q=-0.0 size=  183808kB time=00:00:53.09 bitrate=28361.2kbits/s dup=17 drop=5 speed=10.6x    frame= 1749 fps=317 q=-0.0 size=  203520kB time=00:00:58.42 bitrate=28538.7kbits/s dup=18 drop=6 speed=10.6x    frame= 1895 fps=315 q=-0.0 size=  220416kB time=00:01:03.31 bitrate=28518.0kbits/s dup=23 drop=7 speed=10.5x    [mpegts @ 0x55a44902d800] PES packet size mismatch
[h264 @ 0x55a449070080] error while decoding MB 41 13, bytestream -26
[h264 @ 0x55a449070080] concealing 6608 DC, 6608 AC, 6608 MV errors in P frame
[dv @ 0x55a449071bc0] Can't process DV frame #1914. Insufficient audio data or severe sync problem.
    Last message repeated 2 times
frame= 1921 fps=314 q=-0.0 Lsize=  224297kB time=00:01:04.09 bitrate=28666.4kbits/s dup=23 drop=7 speed=10.5x    
video:225117kB audio:11974kB subtitle:0kB other streams:0kB global headers:0kB muxing overhead: unknown
ffmpeg version 4.0.2 Copyright (c) 2000-2018 the FFmpeg developers
  built with gcc 7 (Ubuntu 7.4.0-1ubuntu1~18.04.1)
  configuration: --disable-zlib --disable-doc --prefix=/home/sgeorgiou/GitHub/phoronixDataSet/tools/tasks_test/ffmpeg
  libavutil      56. 14.100 / 56. 14.100
  libavcodec     58. 18.100 / 58. 18.100
  libavformat    58. 12.100 / 58. 12.100
  libavdevice    58.  3.100 / 58.  3.100
  libavfilter     7. 16.100 /  7. 16.100
  libswscale      5.  1.100 /  5.  1.100
  libswresample   3.  1.100 /  3.  1.100
[NULL @ 0x561cc67e5080] non-existing PPS 0 referenced
[h264 @ 0x561cc67e5080] non-existing PPS 0 referenced
[h264 @ 0x561cc67e5080] decode_slice_header error
[h264 @ 0x561cc67e5080] non-existing PPS 0 referenced
[h264 @ 0x561cc67e5080] decode_slice_header error
[h264 @ 0x561cc67e5080] non-existing PPS 0 referenced
[h264 @ 0x561cc67e5080] decode_slice_header error
[h264 @ 0x561cc67e5080] non-existing PPS 0 referenced
[h264 @ 0x561cc67e5080] decode_slice_header error
[h264 @ 0x561cc67e5080] non-existing PPS 0 referenced
[h264 @ 0x561cc67e5080] decode_slice_header error
[h264 @ 0x561cc67e5080] non-existing PPS 0 referenced
[h264 @ 0x561cc67e5080] decode_slice_header error
[h264 @ 0x561cc67e5080] no frame!
[mpeg2video @ 0x561cc67bbdc0] Invalid frame dimensions 0x0.
    Last message repeated 1 times
[h264 @ 0x561cc67e5080] non-existing PPS 0 referenced
    Last message repeated 1 times
[h264 @ 0x561cc67e5080] decode_slice_header error
[h264 @ 0x561cc67e5080] non-existing PPS 0 referenced
[h264 @ 0x561cc67e5080] decode_slice_header error
[h264 @ 0x561cc67e5080] non-existing PPS 0 referenced
[h264 @ 0x561cc67e5080] decode_slice_header error
[h264 @ 0x561cc67e5080] non-existing PPS 0 referenced
[h264 @ 0x561cc67e5080] decode_slice_header error
[h264 @ 0x561cc67e5080] non-existing PPS 0 referenced
[h264 @ 0x561cc67e5080] decode_slice_header error
[h264 @ 0x561cc67e5080] non-existing PPS 0 referenced
[h264 @ 0x561cc67e5080] decode_slice_header error
[h264 @ 0x561cc67e5080] no frame!
[mpeg2video @ 0x561cc67bbdc0] Invalid frame dimensions 0x0.
[h264 @ 0x561cc67e5080] non-existing PPS 0 referenced
    Last message repeated 1 times
[h264 @ 0x561cc67e5080] decode_slice_header error
[h264 @ 0x561cc67e5080] non-existing PPS 0 referenced
[h264 @ 0x561cc67e5080] decode_slice_header error
[h264 @ 0x561cc67e5080] non-existing PPS 0 referenced
[h264 @ 0x561cc67e5080] decode_slice_header error
[h264 @ 0x561cc67e5080] non-existing PPS 0 referenced
[h264 @ 0x561cc67e5080] decode_slice_header error
[h264 @ 0x561cc67e5080] non-existing PPS 0 referenced
[h264 @ 0x561cc67e5080] decode_slice_header error
[h264 @ 0x561cc67e5080] non-existing PPS 0 referenced
[h264 @ 0x561cc67e5080] decode_slice_header error
[h264 @ 0x561cc67e5080] no frame!
[mpeg2video @ 0x561cc67bbdc0] Invalid frame dimensions 0x0.
[h264 @ 0x561cc67e5080] non-existing PPS 0 referenced
    Last message repeated 1 times
[h264 @ 0x561cc67e5080] decode_slice_header error
[h264 @ 0x561cc67e5080] non-existing PPS 0 referenced
[h264 @ 0x561cc67e5080] decode_slice_header error
[h264 @ 0x561cc67e5080] non-existing PPS 0 referenced
[h264 @ 0x561cc67e5080] decode_slice_header error
[h264 @ 0x561cc67e5080] non-existing PPS 0 referenced
[h264 @ 0x561cc67e5080] decode_slice_header error
[h264 @ 0x561cc67e5080] non-existing PPS 0 referenced
[h264 @ 0x561cc67e5080] decode_slice_header error
[h264 @ 0x561cc67e5080] non-existing PPS 0 referenced
[h264 @ 0x561cc67e5080] decode_slice_header error
[h264 @ 0x561cc67e5080] no frame!
[mpeg2video @ 0x561cc67bbdc0] Invalid frame dimensions 0x0.
[h264 @ 0x561cc67e5080] non-existing PPS 0 referenced
    Last message repeated 1 times
[h264 @ 0x561cc67e5080] decode_slice_header error
[h264 @ 0x561cc67e5080] non-existing PPS 0 referenced
[h264 @ 0x561cc67e5080] decode_slice_header error
[h264 @ 0x561cc67e5080] non-existing PPS 0 referenced
[h264 @ 0x561cc67e5080] decode_slice_header error
[h264 @ 0x561cc67e5080] non-existing PPS 0 referenced
[h264 @ 0x561cc67e5080] decode_slice_header error
[h264 @ 0x561cc67e5080] non-existing PPS 0 referenced
[h264 @ 0x561cc67e5080] decode_slice_header error
[h264 @ 0x561cc67e5080] non-existing PPS 0 referenced
[h264 @ 0x561cc67e5080] decode_slice_header error
[h264 @ 0x561cc67e5080] no frame!
[mpeg2video @ 0x561cc67bbdc0] Invalid frame dimensions 0x0.
[h264 @ 0x561cc67e5080] non-existing PPS 0 referenced
    Last message repeated 1 times
[h264 @ 0x561cc67e5080] decode_slice_header error
[h264 @ 0x561cc67e5080] non-existing PPS 0 referenced
[h264 @ 0x561cc67e5080] decode_slice_header error
[h264 @ 0x561cc67e5080] non-existing PPS 0 referenced
[h264 @ 0x561cc67e5080] decode_slice_header error
[h264 @ 0x561cc67e5080] non-existing PPS 0 referenced
[h264 @ 0x561cc67e5080] decode_slice_header error
[h264 @ 0x561cc67e5080] non-existing PPS 0 referenced
[h264 @ 0x561cc67e5080] decode_slice_header error
[h264 @ 0x561cc67e5080] non-existing PPS 0 referenced
[h264 @ 0x561cc67e5080] decode_slice_header error
[h264 @ 0x561cc67e5080] no frame!
[h264 @ 0x561cc67e5080] non-existing PPS 0 referenced
    Last message repeated 1 times
[h264 @ 0x561cc67e5080] decode_slice_header error
[h264 @ 0x561cc67e5080] non-existing PPS 0 referenced
[h264 @ 0x561cc67e5080] decode_slice_header error
[h264 @ 0x561cc67e5080] non-existing PPS 0 referenced
[h264 @ 0x561cc67e5080] decode_slice_header error
[h264 @ 0x561cc67e5080] non-existing PPS 0 referenced
[h264 @ 0x561cc67e5080] decode_slice_header error
[h264 @ 0x561cc67e5080] non-existing PPS 0 referenced
[h264 @ 0x561cc67e5080] decode_slice_header error
[h264 @ 0x561cc67e5080] non-existing PPS 0 referenced
[h264 @ 0x561cc67e5080] decode_slice_header error
[h264 @ 0x561cc67e5080] no frame!
[mpeg2video @ 0x561cc67bbdc0] Invalid frame dimensions 0x0.
    Last message repeated 1 times
[h264 @ 0x561cc67e5080] non-existing PPS 0 referenced
    Last message repeated 1 times
[h264 @ 0x561cc67e5080] decode_slice_header error
[h264 @ 0x561cc67e5080] non-existing PPS 0 referenced
[h264 @ 0x561cc67e5080] decode_slice_header error
[h264 @ 0x561cc67e5080] non-existing PPS 0 referenced
[h264 @ 0x561cc67e5080] decode_slice_header error
[h264 @ 0x561cc67e5080] non-existing PPS 0 referenced
[h264 @ 0x561cc67e5080] decode_slice_header error
[h264 @ 0x561cc67e5080] non-existing PPS 0 referenced
[h264 @ 0x561cc67e5080] decode_slice_header error
[h264 @ 0x561cc67e5080] non-existing PPS 0 referenced
[h264 @ 0x561cc67e5080] decode_slice_header error
[h264 @ 0x561cc67e5080] no frame!
[mpeg2video @ 0x561cc67bbdc0] Invalid frame dimensions 0x0.
    Last message repeated 1 times
[mpegts @ 0x561cc67b5800] PES packet size mismatch
    Last message repeated 2 times
Input #0, mpegts, from 'HD2-h264.ts':
  Duration: 00:01:04.75, start: 31309.702867, bitrate: 37500 kb/s
  Program 128 
    Metadata:
      service_name    : DPC.TV10
      service_provider: DPC
    Stream #0:0[0x1ff]: Video: mpeg2video (Main) ([2][0][0][0] / 0x0002), yuv420p(tv, progressive), 720x576 [SAR 16:15 DAR 4:3], 25 fps, 25 tbr, 90k tbn, 50 tbc
    Stream #0:1[0x200](ger): Audio: mp2 ([3][0][0][0] / 0x0003), 48000 Hz, stereo, fltp, 192 kb/s (clean effects)
  Program 129 
    Metadata:
      service_name    : DPC.TV11
      service_provider: DPC
    Stream #0:2[0x2ff]: Video: h264 (Main) ([27][0][0][0] / 0x001B), yuv420p(progressive), 1920x1088 [SAR 1:1 DAR 30:17], 29.97 fps, 29.97 tbr, 90k tbn
    Stream #0:3[0x304](eng): Audio: ac3 ([6][0][0][0] / 0x0006), 48000 Hz, stereo, fltp, 384 kb/s
Stream mapping:
  Stream #0:2 -> #0:0 (h264 (native) -> dvvideo (native))
  Stream #0:1 -> #0:1 (mp2 (native) -> pcm_s16le (native))
Press [q] to stop, [?] for help
Output #0, dv, to '/dev/null':
  Metadata:
    encoder         : Lavf58.12.100
    Stream #0:0: Video: dvvideo, yuv411p, 720x480 [SAR 20:17 DAR 30:17], q=2-31, 200 kb/s, 29.97 fps, 29.97 tbn, 29.97 tbc
    Metadata:
      encoder         : Lavc58.18.100 dvvideo
    Stream #0:1(ger): Audio: pcm_s16le, 48000 Hz, stereo, s16, 1536 kb/s (clean effects)
    Metadata:
      encoder         : Lavc58.18.100 pcm_s16le
[dv @ 0x561cc67f9bc0] Can't process DV frame #0. Insufficient audio data or severe sync problem.
    Last message repeated 2 times
[h264 @ 0x561cc686ccc0] Increasing reorder buffer to 1
frame=  178 fps=0.0 q=-0.0 size=   19200kB time=00:00:06.14 bitrate=25582.9kbits/s dup=8 drop=0 speed=12.3x    frame=  352 fps=351 q=-0.0 size=   39680kB time=00:00:12.05 bitrate=26971.1kbits/s dup=8 drop=0 speed=  12x    frame=  522 fps=347 q=-0.0 size=   59648kB time=00:00:17.83 bitrate=27395.9kbits/s dup=8 drop=0 speed=11.9x    frame=  695 fps=347 q=-0.0 size=   79872kB time=00:00:23.74 bitrate=27561.4kbits/s dup=8 drop=0 speed=11.8x    frame=  854 fps=341 q=-0.0 size=   98560kB time=00:00:28.90 bitrate=27937.7kbits/s dup=10 drop=0 speed=11.5x    frame= 1020 fps=339 q=-0.0 size=  118016kB time=00:00:34.22 bitrate=28245.4kbits/s dup=11 drop=2 speed=11.4x    frame= 1188 fps=339 q=-0.0 size=  137728kB time=00:00:39.98 bitrate=28215.1kbits/s dup=13 drop=2 speed=11.4x    frame= 1353 fps=337 q=-0.0 size=  156928kB time=00:00:45.31 bitrate=28368.6kbits/s dup=15 drop=3 speed=11.3x    frame= 1517 fps=336 q=-0.0 size=  176128kB time=00:00:50.78 bitrate=28409.0kbits/s dup=16 drop=4 speed=11.3x    frame= 1682 fps=335 q=-0.0 size=  195584kB time=00:00:56.40 bitrate=28406.1kbits/s dup=17 drop=6 speed=11.3x    frame= 1850 fps=335 q=-0.0 size=  215296kB time=00:01:01.73 bitrate=28570.3kbits/s dup=20 drop=7 speed=11.2x    [mpegts @ 0x561cc67b5800] PES packet size mismatch
[h264 @ 0x561cc67f8080] error while decoding MB 41 13, bytestream -26
[h264 @ 0x561cc67f8080] concealing 6608 DC, 6608 AC, 6608 MV errors in P frame
[dv @ 0x561cc67f9bc0] Can't process DV frame #1914. Insufficient audio data or severe sync problem.
    Last message repeated 2 times
frame= 1921 fps=335 q=-0.0 Lsize=  224297kB time=00:01:04.09 bitrate=28666.4kbits/s dup=23 drop=7 speed=11.2x    
video:225117kB audio:11974kB subtitle:0kB other streams:0kB global headers:0kB muxing overhead: unknown
ffmpeg version 4.0.2 Copyright (c) 2000-2018 the FFmpeg developers
  built with gcc 7 (Ubuntu 7.4.0-1ubuntu1~18.04.1)
  configuration: --disable-zlib --disable-doc --prefix=/home/sgeorgiou/GitHub/phoronixDataSet/tools/tasks_test/ffmpeg
  libavutil      56. 14.100 / 56. 14.100
  libavcodec     58. 18.100 / 58. 18.100
  libavformat    58. 12.100 / 58. 12.100
  libavdevice    58.  3.100 / 58.  3.100
  libavfilter     7. 16.100 /  7. 16.100
  libswscale      5.  1.100 /  5.  1.100
  libswresample   3.  1.100 /  3.  1.100
[NULL @ 0x557aea6bf080] non-existing PPS 0 referenced
[h264 @ 0x557aea6bf080] non-existing PPS 0 referenced
[h264 @ 0x557aea6bf080] decode_slice_header error
[h264 @ 0x557aea6bf080] non-existing PPS 0 referenced
[h264 @ 0x557aea6bf080] decode_slice_header error
[h264 @ 0x557aea6bf080] non-existing PPS 0 referenced
[h264 @ 0x557aea6bf080] decode_slice_header error
[h264 @ 0x557aea6bf080] non-existing PPS 0 referenced
[h264 @ 0x557aea6bf080] decode_slice_header error
[h264 @ 0x557aea6bf080] non-existing PPS 0 referenced
[h264 @ 0x557aea6bf080] decode_slice_header error
[h264 @ 0x557aea6bf080] non-existing PPS 0 referenced
[h264 @ 0x557aea6bf080] decode_slice_header error
[h264 @ 0x557aea6bf080] no frame!
[mpeg2video @ 0x557aea695dc0] Invalid frame dimensions 0x0.
    Last message repeated 1 times
[h264 @ 0x557aea6bf080] non-existing PPS 0 referenced
    Last message repeated 1 times
[h264 @ 0x557aea6bf080] decode_slice_header error
[h264 @ 0x557aea6bf080] non-existing PPS 0 referenced
[h264 @ 0x557aea6bf080] decode_slice_header error
[h264 @ 0x557aea6bf080] non-existing PPS 0 referenced
[h264 @ 0x557aea6bf080] decode_slice_header error
[h264 @ 0x557aea6bf080] non-existing PPS 0 referenced
[h264 @ 0x557aea6bf080] decode_slice_header error
[h264 @ 0x557aea6bf080] non-existing PPS 0 referenced
[h264 @ 0x557aea6bf080] decode_slice_header error
[h264 @ 0x557aea6bf080] non-existing PPS 0 referenced
[h264 @ 0x557aea6bf080] decode_slice_header error
[h264 @ 0x557aea6bf080] no frame!
[mpeg2video @ 0x557aea695dc0] Invalid frame dimensions 0x0.
[h264 @ 0x557aea6bf080] non-existing PPS 0 referenced
    Last message repeated 1 times
[h264 @ 0x557aea6bf080] decode_slice_header error
[h264 @ 0x557aea6bf080] non-existing PPS 0 referenced
[h264 @ 0x557aea6bf080] decode_slice_header error
[h264 @ 0x557aea6bf080] non-existing PPS 0 referenced
[h264 @ 0x557aea6bf080] decode_slice_header error
[h264 @ 0x557aea6bf080] non-existing PPS 0 referenced
[h264 @ 0x557aea6bf080] decode_slice_header error
[h264 @ 0x557aea6bf080] non-existing PPS 0 referenced
[h264 @ 0x557aea6bf080] decode_slice_header error
[h264 @ 0x557aea6bf080] non-existing PPS 0 referenced
[h264 @ 0x557aea6bf080] decode_slice_header error
[h264 @ 0x557aea6bf080] no frame!
[mpeg2video @ 0x557aea695dc0] Invalid frame dimensions 0x0.
[h264 @ 0x557aea6bf080] non-existing PPS 0 referenced
    Last message repeated 1 times
[h264 @ 0x557aea6bf080] decode_slice_header error
[h264 @ 0x557aea6bf080] non-existing PPS 0 referenced
[h264 @ 0x557aea6bf080] decode_slice_header error
[h264 @ 0x557aea6bf080] non-existing PPS 0 referenced
[h264 @ 0x557aea6bf080] decode_slice_header error
[h264 @ 0x557aea6bf080] non-existing PPS 0 referenced
[h264 @ 0x557aea6bf080] decode_slice_header error
[h264 @ 0x557aea6bf080] non-existing PPS 0 referenced
[h264 @ 0x557aea6bf080] decode_slice_header error
[h264 @ 0x557aea6bf080] non-existing PPS 0 referenced
[h264 @ 0x557aea6bf080] decode_slice_header error
[h264 @ 0x557aea6bf080] no frame!
[mpeg2video @ 0x557aea695dc0] Invalid frame dimensions 0x0.
[h264 @ 0x557aea6bf080] non-existing PPS 0 referenced
    Last message repeated 1 times
[h264 @ 0x557aea6bf080] decode_slice_header error
[h264 @ 0x557aea6bf080] non-existing PPS 0 referenced
[h264 @ 0x557aea6bf080] decode_slice_header error
[h264 @ 0x557aea6bf080] non-existing PPS 0 referenced
[h264 @ 0x557aea6bf080] decode_slice_header error
[h264 @ 0x557aea6bf080] non-existing PPS 0 referenced
[h264 @ 0x557aea6bf080] decode_slice_header error
[h264 @ 0x557aea6bf080] non-existing PPS 0 referenced
[h264 @ 0x557aea6bf080] decode_slice_header error
[h264 @ 0x557aea6bf080] non-existing PPS 0 referenced
[h264 @ 0x557aea6bf080] decode_slice_header error
[h264 @ 0x557aea6bf080] no frame!
[mpeg2video @ 0x557aea695dc0] Invalid frame dimensions 0x0.
[h264 @ 0x557aea6bf080] non-existing PPS 0 referenced
    Last message repeated 1 times
[h264 @ 0x557aea6bf080] decode_slice_header error
[h264 @ 0x557aea6bf080] non-existing PPS 0 referenced
[h264 @ 0x557aea6bf080] decode_slice_header error
[h264 @ 0x557aea6bf080] non-existing PPS 0 referenced
[h264 @ 0x557aea6bf080] decode_slice_header error
[h264 @ 0x557aea6bf080] non-existing PPS 0 referenced
[h264 @ 0x557aea6bf080] decode_slice_header error
[h264 @ 0x557aea6bf080] non-existing PPS 0 referenced
[h264 @ 0x557aea6bf080] decode_slice_header error
[h264 @ 0x557aea6bf080] non-existing PPS 0 referenced
[h264 @ 0x557aea6bf080] decode_slice_header error
[h264 @ 0x557aea6bf080] no frame!
[h264 @ 0x557aea6bf080] non-existing PPS 0 referenced
    Last message repeated 1 times
[h264 @ 0x557aea6bf080] decode_slice_header error
[h264 @ 0x557aea6bf080] non-existing PPS 0 referenced
[h264 @ 0x557aea6bf080] decode_slice_header error
[h264 @ 0x557aea6bf080] non-existing PPS 0 referenced
[h264 @ 0x557aea6bf080] decode_slice_header error
[h264 @ 0x557aea6bf080] non-existing PPS 0 referenced
[h264 @ 0x557aea6bf080] decode_slice_header error
[h264 @ 0x557aea6bf080] non-existing PPS 0 referenced
[h264 @ 0x557aea6bf080] decode_slice_header error
[h264 @ 0x557aea6bf080] non-existing PPS 0 referenced
[h264 @ 0x557aea6bf080] decode_slice_header error
[h264 @ 0x557aea6bf080] no frame!
[mpeg2video @ 0x557aea695dc0] Invalid frame dimensions 0x0.
    Last message repeated 1 times
[h264 @ 0x557aea6bf080] non-existing PPS 0 referenced
    Last message repeated 1 times
[h264 @ 0x557aea6bf080] decode_slice_header error
[h264 @ 0x557aea6bf080] non-existing PPS 0 referenced
[h264 @ 0x557aea6bf080] decode_slice_header error
[h264 @ 0x557aea6bf080] non-existing PPS 0 referenced
[h264 @ 0x557aea6bf080] decode_slice_header error
[h264 @ 0x557aea6bf080] non-existing PPS 0 referenced
[h264 @ 0x557aea6bf080] decode_slice_header error
[h264 @ 0x557aea6bf080] non-existing PPS 0 referenced
[h264 @ 0x557aea6bf080] decode_slice_header error
[h264 @ 0x557aea6bf080] non-existing PPS 0 referenced
[h264 @ 0x557aea6bf080] decode_slice_header error
[h264 @ 0x557aea6bf080] no frame!
[mpeg2video @ 0x557aea695dc0] Invalid frame dimensions 0x0.
    Last message repeated 1 times
[mpegts @ 0x557aea68f800] PES packet size mismatch
    Last message repeated 2 times
Input #0, mpegts, from 'HD2-h264.ts':
  Duration: 00:01:04.75, start: 31309.702867, bitrate: 37500 kb/s
  Program 128 
    Metadata:
      service_name    : DPC.TV10
      service_provider: DPC
    Stream #0:0[0x1ff]: Video: mpeg2video (Main) ([2][0][0][0] / 0x0002), yuv420p(tv, progressive), 720x576 [SAR 16:15 DAR 4:3], 25 fps, 25 tbr, 90k tbn, 50 tbc
    Stream #0:1[0x200](ger): Audio: mp2 ([3][0][0][0] / 0x0003), 48000 Hz, stereo, fltp, 192 kb/s (clean effects)
  Program 129 
    Metadata:
      service_name    : DPC.TV11
      service_provider: DPC
    Stream #0:2[0x2ff]: Video: h264 (Main) ([27][0][0][0] / 0x001B), yuv420p(progressive), 1920x1088 [SAR 1:1 DAR 30:17], 29.97 fps, 29.97 tbr, 90k tbn
    Stream #0:3[0x304](eng): Audio: ac3 ([6][0][0][0] / 0x0006), 48000 Hz, stereo, fltp, 384 kb/s
Stream mapping:
  Stream #0:2 -> #0:0 (h264 (native) -> dvvideo (native))
  Stream #0:1 -> #0:1 (mp2 (native) -> pcm_s16le (native))
Press [q] to stop, [?] for help
Output #0, dv, to '/dev/null':
  Metadata:
    encoder         : Lavf58.12.100
    Stream #0:0: Video: dvvideo, yuv411p, 720x480 [SAR 20:17 DAR 30:17], q=2-31, 200 kb/s, 29.97 fps, 29.97 tbn, 29.97 tbc
    Metadata:
      encoder         : Lavc58.18.100 dvvideo
    Stream #0:1(ger): Audio: pcm_s16le, 48000 Hz, stereo, s16, 1536 kb/s (clean effects)
    Metadata:
      encoder         : Lavc58.18.100 pcm_s16le
[dv @ 0x557aea6d3bc0] Can't process DV frame #0. Insufficient audio data or severe sync problem.
    Last message repeated 2 times
[h264 @ 0x557aea746cc0] Increasing reorder buffer to 1
frame=  176 fps=0.0 q=-0.0 size=   19200kB time=00:00:06.02 bitrate=26092.2kbits/s dup=8 drop=0 speed=  12x    frame=  350 fps=349 q=-0.0 size=   39424kB time=00:00:12.05 bitrate=26797.1kbits/s dup=8 drop=0 speed=  12x    frame=  523 fps=348 q=-0.0 size=   59648kB time=00:00:17.95 bitrate=27212.8kbits/s dup=8 drop=0 speed=  12x    frame=  693 fps=346 q=-0.0 size=   79616kB time=00:00:23.45 bitrate=27810.5kbits/s dup=8 drop=0 speed=11.7x    frame=  853 fps=341 q=-0.0 size=   98304kB time=00:00:28.78 bitrate=27981.4kbits/s dup=10 drop=0 speed=11.5x    frame= 1016 fps=338 q=-0.0 size=  117504kB time=00:00:34.10 bitrate=28221.8kbits/s dup=11 drop=2 speed=11.4x    frame= 1184 fps=338 q=-0.0 size=  137216kB time=00:00:39.70 bitrate=28314.1kbits/s dup=13 drop=2 speed=11.3x    frame= 1348 fps=336 q=-0.0 size=  156416kB time=00:00:45.17 bitrate=28366.2kbits/s dup=15 drop=2 speed=11.3x    frame= 1507 fps=334 q=-0.0 size=  175104kB time=00:00:50.50 bitrate=28404.9kbits/s dup=15 drop=4 speed=11.2x    frame= 1674 fps=334 q=-0.0 size=  194560kB time=00:00:55.97 bitrate=28475.5kbits/s dup=17 drop=6 speed=11.2x    frame= 1842 fps=334 q=-0.0 size=  214272kB time=00:01:01.46 bitrate=28556.5kbits/s dup=20 drop=7 speed=11.2x    [mpegts @ 0x557aea68f800] PES packet size mismatch
[h264 @ 0x557aea6d2080] error while decoding MB 41 13, bytestream -26
[h264 @ 0x557aea6d2080] concealing 6608 DC, 6608 AC, 6608 MV errors in P frame
[dv @ 0x557aea6d3bc0] Can't process DV frame #1914. Insufficient audio data or severe sync problem.
    Last message repeated 2 times
frame= 1921 fps=334 q=-0.0 Lsize=  224297kB time=00:01:04.09 bitrate=28666.4kbits/s dup=23 drop=7 speed=11.1x    
video:225117kB audio:11974kB subtitle:0kB other streams:0kB global headers:0kB muxing overhead: unknown
ffmpeg version 4.0.2 Copyright (c) 2000-2018 the FFmpeg developers
  built with gcc 7 (Ubuntu 7.4.0-1ubuntu1~18.04.1)
  configuration: --disable-zlib --disable-doc --prefix=/home/sgeorgiou/GitHub/phoronixDataSet/tools/tasks_test/ffmpeg
  libavutil      56. 14.100 / 56. 14.100
  libavcodec     58. 18.100 / 58. 18.100
  libavformat    58. 12.100 / 58. 12.100
  libavdevice    58.  3.100 / 58.  3.100
  libavfilter     7. 16.100 /  7. 16.100
  libswscale      5.  1.100 /  5.  1.100
  libswresample   3.  1.100 /  3.  1.100
[NULL @ 0x55ead7b34080] non-existing PPS 0 referenced
[h264 @ 0x55ead7b34080] non-existing PPS 0 referenced
[h264 @ 0x55ead7b34080] decode_slice_header error
[h264 @ 0x55ead7b34080] non-existing PPS 0 referenced
[h264 @ 0x55ead7b34080] decode_slice_header error
[h264 @ 0x55ead7b34080] non-existing PPS 0 referenced
[h264 @ 0x55ead7b34080] decode_slice_header error
[h264 @ 0x55ead7b34080] non-existing PPS 0 referenced
[h264 @ 0x55ead7b34080] decode_slice_header error
[h264 @ 0x55ead7b34080] non-existing PPS 0 referenced
[h264 @ 0x55ead7b34080] decode_slice_header error
[h264 @ 0x55ead7b34080] non-existing PPS 0 referenced
[h264 @ 0x55ead7b34080] decode_slice_header error
[h264 @ 0x55ead7b34080] no frame!
[mpeg2video @ 0x55ead7b0adc0] Invalid frame dimensions 0x0.
    Last message repeated 1 times
[h264 @ 0x55ead7b34080] non-existing PPS 0 referenced
    Last message repeated 1 times
[h264 @ 0x55ead7b34080] decode_slice_header error
[h264 @ 0x55ead7b34080] non-existing PPS 0 referenced
[h264 @ 0x55ead7b34080] decode_slice_header error
[h264 @ 0x55ead7b34080] non-existing PPS 0 referenced
[h264 @ 0x55ead7b34080] decode_slice_header error
[h264 @ 0x55ead7b34080] non-existing PPS 0 referenced
[h264 @ 0x55ead7b34080] decode_slice_header error
[h264 @ 0x55ead7b34080] non-existing PPS 0 referenced
[h264 @ 0x55ead7b34080] decode_slice_header error
[h264 @ 0x55ead7b34080] non-existing PPS 0 referenced
[h264 @ 0x55ead7b34080] decode_slice_header error
[h264 @ 0x55ead7b34080] no frame!
[mpeg2video @ 0x55ead7b0adc0] Invalid frame dimensions 0x0.
[h264 @ 0x55ead7b34080] non-existing PPS 0 referenced
    Last message repeated 1 times
[h264 @ 0x55ead7b34080] decode_slice_header error
[h264 @ 0x55ead7b34080] non-existing PPS 0 referenced
[h264 @ 0x55ead7b34080] decode_slice_header error
[h264 @ 0x55ead7b34080] non-existing PPS 0 referenced
[h264 @ 0x55ead7b34080] decode_slice_header error
[h264 @ 0x55ead7b34080] non-existing PPS 0 referenced
[h264 @ 0x55ead7b34080] decode_slice_header error
[h264 @ 0x55ead7b34080] non-existing PPS 0 referenced
[h264 @ 0x55ead7b34080] decode_slice_header error
[h264 @ 0x55ead7b34080] non-existing PPS 0 referenced
[h264 @ 0x55ead7b34080] decode_slice_header error
[h264 @ 0x55ead7b34080] no frame!
[mpeg2video @ 0x55ead7b0adc0] Invalid frame dimensions 0x0.
[h264 @ 0x55ead7b34080] non-existing PPS 0 referenced
    Last message repeated 1 times
[h264 @ 0x55ead7b34080] decode_slice_header error
[h264 @ 0x55ead7b34080] non-existing PPS 0 referenced
[h264 @ 0x55ead7b34080] decode_slice_header error
[h264 @ 0x55ead7b34080] non-existing PPS 0 referenced
[h264 @ 0x55ead7b34080] decode_slice_header error
[h264 @ 0x55ead7b34080] non-existing PPS 0 referenced
[h264 @ 0x55ead7b34080] decode_slice_header error
[h264 @ 0x55ead7b34080] non-existing PPS 0 referenced
[h264 @ 0x55ead7b34080] decode_slice_header error
[h264 @ 0x55ead7b34080] non-existing PPS 0 referenced
[h264 @ 0x55ead7b34080] decode_slice_header error
[h264 @ 0x55ead7b34080] no frame!
[mpeg2video @ 0x55ead7b0adc0] Invalid frame dimensions 0x0.
[h264 @ 0x55ead7b34080] non-existing PPS 0 referenced
    Last message repeated 1 times
[h264 @ 0x55ead7b34080] decode_slice_header error
[h264 @ 0x55ead7b34080] non-existing PPS 0 referenced
[h264 @ 0x55ead7b34080] decode_slice_header error
[h264 @ 0x55ead7b34080] non-existing PPS 0 referenced
[h264 @ 0x55ead7b34080] decode_slice_header error
[h264 @ 0x55ead7b34080] non-existing PPS 0 referenced
[h264 @ 0x55ead7b34080] decode_slice_header error
[h264 @ 0x55ead7b34080] non-existing PPS 0 referenced
[h264 @ 0x55ead7b34080] decode_slice_header error
[h264 @ 0x55ead7b34080] non-existing PPS 0 referenced
[h264 @ 0x55ead7b34080] decode_slice_header error
[h264 @ 0x55ead7b34080] no frame!
[mpeg2video @ 0x55ead7b0adc0] Invalid frame dimensions 0x0.
[h264 @ 0x55ead7b34080] non-existing PPS 0 referenced
    Last message repeated 1 times
[h264 @ 0x55ead7b34080] decode_slice_header error
[h264 @ 0x55ead7b34080] non-existing PPS 0 referenced
[h264 @ 0x55ead7b34080] decode_slice_header error
[h264 @ 0x55ead7b34080] non-existing PPS 0 referenced
[h264 @ 0x55ead7b34080] decode_slice_header error
[h264 @ 0x55ead7b34080] non-existing PPS 0 referenced
[h264 @ 0x55ead7b34080] decode_slice_header error
[h264 @ 0x55ead7b34080] non-existing PPS 0 referenced
[h264 @ 0x55ead7b34080] decode_slice_header error
[h264 @ 0x55ead7b34080] non-existing PPS 0 referenced
[h264 @ 0x55ead7b34080] decode_slice_header error
[h264 @ 0x55ead7b34080] no frame!
[h264 @ 0x55ead7b34080] non-existing PPS 0 referenced
    Last message repeated 1 times
[h264 @ 0x55ead7b34080] decode_slice_header error
[h264 @ 0x55ead7b34080] non-existing PPS 0 referenced
[h264 @ 0x55ead7b34080] decode_slice_header error
[h264 @ 0x55ead7b34080] non-existing PPS 0 referenced
[h264 @ 0x55ead7b34080] decode_slice_header error
[h264 @ 0x55ead7b34080] non-existing PPS 0 referenced
[h264 @ 0x55ead7b34080] decode_slice_header error
[h264 @ 0x55ead7b34080] non-existing PPS 0 referenced
[h264 @ 0x55ead7b34080] decode_slice_header error
[h264 @ 0x55ead7b34080] non-existing PPS 0 referenced
[h264 @ 0x55ead7b34080] decode_slice_header error
[h264 @ 0x55ead7b34080] no frame!
[mpeg2video @ 0x55ead7b0adc0] Invalid frame dimensions 0x0.
    Last message repeated 1 times
[h264 @ 0x55ead7b34080] non-existing PPS 0 referenced
    Last message repeated 1 times
[h264 @ 0x55ead7b34080] decode_slice_header error
[h264 @ 0x55ead7b34080] non-existing PPS 0 referenced
[h264 @ 0x55ead7b34080] decode_slice_header error
[h264 @ 0x55ead7b34080] non-existing PPS 0 referenced
[h264 @ 0x55ead7b34080] decode_slice_header error
[h264 @ 0x55ead7b34080] non-existing PPS 0 referenced
[h264 @ 0x55ead7b34080] decode_slice_header error
[h264 @ 0x55ead7b34080] non-existing PPS 0 referenced
[h264 @ 0x55ead7b34080] decode_slice_header error
[h264 @ 0x55ead7b34080] non-existing PPS 0 referenced
[h264 @ 0x55ead7b34080] decode_slice_header error
[h264 @ 0x55ead7b34080] no frame!
[mpeg2video @ 0x55ead7b0adc0] Invalid frame dimensions 0x0.
    Last message repeated 1 times
[mpegts @ 0x55ead7b04800] PES packet size mismatch
    Last message repeated 2 times
Input #0, mpegts, from 'HD2-h264.ts':
  Duration: 00:01:04.75, start: 31309.702867, bitrate: 37500 kb/s
  Program 128 
    Metadata:
      service_name    : DPC.TV10
      service_provider: DPC
    Stream #0:0[0x1ff]: Video: mpeg2video (Main) ([2][0][0][0] / 0x0002), yuv420p(tv, progressive), 720x576 [SAR 16:15 DAR 4:3], 25 fps, 25 tbr, 90k tbn, 50 tbc
    Stream #0:1[0x200](ger): Audio: mp2 ([3][0][0][0] / 0x0003), 48000 Hz, stereo, fltp, 192 kb/s (clean effects)
  Program 129 
    Metadata:
      service_name    : DPC.TV11
      service_provider: DPC
    Stream #0:2[0x2ff]: Video: h264 (Main) ([27][0][0][0] / 0x001B), yuv420p(progressive), 1920x1088 [SAR 1:1 DAR 30:17], 29.97 fps, 29.97 tbr, 90k tbn
    Stream #0:3[0x304](eng): Audio: ac3 ([6][0][0][0] / 0x0006), 48000 Hz, stereo, fltp, 384 kb/s
Stream mapping:
  Stream #0:2 -> #0:0 (h264 (native) -> dvvideo (native))
  Stream #0:1 -> #0:1 (mp2 (native) -> pcm_s16le (native))
Press [q] to stop, [?] for help
Output #0, dv, to '/dev/null':
  Metadata:
    encoder         : Lavf58.12.100
    Stream #0:0: Video: dvvideo, yuv411p, 720x480 [SAR 20:17 DAR 30:17], q=2-31, 200 kb/s, 29.97 fps, 29.97 tbn, 29.97 tbc
    Metadata:
      encoder         : Lavc58.18.100 dvvideo
    Stream #0:1(ger): Audio: pcm_s16le, 48000 Hz, stereo, s16, 1536 kb/s (clean effects)
    Metadata:
      encoder         : Lavc58.18.100 pcm_s16le
[dv @ 0x55ead7b48bc0] Can't process DV frame #0. Insufficient audio data or severe sync problem.
    Last message repeated 2 times
[h264 @ 0x55ead7bbbcc0] Increasing reorder buffer to 1
frame=  171 fps=0.0 q=-0.0 size=   18432kB time=00:00:05.86 bitrate=25766.6kbits/s dup=8 drop=0 speed=11.7x    frame=  344 fps=343 q=-0.0 size=   38656kB time=00:00:11.76 bitrate=26918.3kbits/s dup=8 drop=0 speed=11.7x    frame=  517 fps=344 q=-0.0 size=   59136kB time=00:00:17.66 bitrate=27419.0kbits/s dup=8 drop=0 speed=11.7x    frame=  691 fps=345 q=-0.0 size=   79360kB time=00:00:23.42 bitrate=27749.5kbits/s dup=8 drop=0 speed=11.7x    frame=  850 fps=339 q=-0.0 size=   98048kB time=00:00:28.61 bitrate=28072.4kbits/s dup=10 drop=0 speed=11.4x    frame= 1011 fps=336 q=-0.0 size=  116992kB time=00:00:34.08 bitrate=28118.6kbits/s dup=11 drop=2 speed=11.3x    frame= 1178 fps=336 q=-0.0 size=  136448kB time=00:00:39.41 bitrate=28361.4kbits/s dup=13 drop=2 speed=11.2x    frame= 1343 fps=335 q=-0.0 size=  155904kB time=00:00:44.90 bitrate=28439.5kbits/s dup=15 drop=2 speed=11.2x    frame= 1503 fps=333 q=-0.0 size=  174592kB time=00:00:50.35 bitrate=28402.8kbits/s dup=15 drop=4 speed=11.2x    frame= 1671 fps=334 q=-0.0 size=  194304kB time=00:00:55.82 bitrate=28511.4kbits/s dup=17 drop=6 speed=11.1x    frame= 1838 fps=334 q=-0.0 size=  213760kB time=00:01:01.44 bitrate=28499.4kbits/s dup=20 drop=7 speed=11.2x    [mpegts @ 0x55ead7b04800] PES packet size mismatch
[h264 @ 0x55ead7b47080] error while decoding MB 41 13, bytestream -26
[h264 @ 0x55ead7b47080] concealing 6608 DC, 6608 AC, 6608 MV errors in P frame
[dv @ 0x55ead7b48bc0] Can't process DV frame #1914. Insufficient audio data or severe sync problem.
    Last message repeated 2 times
frame= 1921 fps=333 q=-0.0 Lsize=  224297kB time=00:01:04.09 bitrate=28666.4kbits/s dup=23 drop=7 speed=11.1x    
video:225117kB audio:11974kB subtitle:0kB other streams:0kB global headers:0kB muxing overhead: unknown
ffmpeg version 4.0.2 Copyright (c) 2000-2018 the FFmpeg developers
  built with gcc 7 (Ubuntu 7.4.0-1ubuntu1~18.04.1)
  configuration: --disable-zlib --disable-doc --prefix=/home/sgeorgiou/GitHub/phoronixDataSet/tools/tasks_test/ffmpeg
  libavutil      56. 14.100 / 56. 14.100
  libavcodec     58. 18.100 / 58. 18.100
  libavformat    58. 12.100 / 58. 12.100
  libavdevice    58.  3.100 / 58.  3.100
  libavfilter     7. 16.100 /  7. 16.100
  libswscale      5.  1.100 /  5.  1.100
  libswresample   3.  1.100 /  3.  1.100
[NULL @ 0x557001cc0080] non-existing PPS 0 referenced
[h264 @ 0x557001cc0080] non-existing PPS 0 referenced
[h264 @ 0x557001cc0080] decode_slice_header error
[h264 @ 0x557001cc0080] non-existing PPS 0 referenced
[h264 @ 0x557001cc0080] decode_slice_header error
[h264 @ 0x557001cc0080] non-existing PPS 0 referenced
[h264 @ 0x557001cc0080] decode_slice_header error
[h264 @ 0x557001cc0080] non-existing PPS 0 referenced
[h264 @ 0x557001cc0080] decode_slice_header error
[h264 @ 0x557001cc0080] non-existing PPS 0 referenced
[h264 @ 0x557001cc0080] decode_slice_header error
[h264 @ 0x557001cc0080] non-existing PPS 0 referenced
[h264 @ 0x557001cc0080] decode_slice_header error
[h264 @ 0x557001cc0080] no frame!
[mpeg2video @ 0x557001c96dc0] Invalid frame dimensions 0x0.
    Last message repeated 1 times
[h264 @ 0x557001cc0080] non-existing PPS 0 referenced
    Last message repeated 1 times
[h264 @ 0x557001cc0080] decode_slice_header error
[h264 @ 0x557001cc0080] non-existing PPS 0 referenced
[h264 @ 0x557001cc0080] decode_slice_header error
[h264 @ 0x557001cc0080] non-existing PPS 0 referenced
[h264 @ 0x557001cc0080] decode_slice_header error
[h264 @ 0x557001cc0080] non-existing PPS 0 referenced
[h264 @ 0x557001cc0080] decode_slice_header error
[h264 @ 0x557001cc0080] non-existing PPS 0 referenced
[h264 @ 0x557001cc0080] decode_slice_header error
[h264 @ 0x557001cc0080] non-existing PPS 0 referenced
[h264 @ 0x557001cc0080] decode_slice_header error
[h264 @ 0x557001cc0080] no frame!
[mpeg2video @ 0x557001c96dc0] Invalid frame dimensions 0x0.
[h264 @ 0x557001cc0080] non-existing PPS 0 referenced
    Last message repeated 1 times
[h264 @ 0x557001cc0080] decode_slice_header error
[h264 @ 0x557001cc0080] non-existing PPS 0 referenced
[h264 @ 0x557001cc0080] decode_slice_header error
[h264 @ 0x557001cc0080] non-existing PPS 0 referenced
[h264 @ 0x557001cc0080] decode_slice_header error
[h264 @ 0x557001cc0080] non-existing PPS 0 referenced
[h264 @ 0x557001cc0080] decode_slice_header error
[h264 @ 0x557001cc0080] non-existing PPS 0 referenced
[h264 @ 0x557001cc0080] decode_slice_header error
[h264 @ 0x557001cc0080] non-existing PPS 0 referenced
[h264 @ 0x557001cc0080] decode_slice_header error
[h264 @ 0x557001cc0080] no frame!
[mpeg2video @ 0x557001c96dc0] Invalid frame dimensions 0x0.
[h264 @ 0x557001cc0080] non-existing PPS 0 referenced
    Last message repeated 1 times
[h264 @ 0x557001cc0080] decode_slice_header error
[h264 @ 0x557001cc0080] non-existing PPS 0 referenced
[h264 @ 0x557001cc0080] decode_slice_header error
[h264 @ 0x557001cc0080] non-existing PPS 0 referenced
[h264 @ 0x557001cc0080] decode_slice_header error
[h264 @ 0x557001cc0080] non-existing PPS 0 referenced
[h264 @ 0x557001cc0080] decode_slice_header error
[h264 @ 0x557001cc0080] non-existing PPS 0 referenced
[h264 @ 0x557001cc0080] decode_slice_header error
[h264 @ 0x557001cc0080] non-existing PPS 0 referenced
[h264 @ 0x557001cc0080] decode_slice_header error
[h264 @ 0x557001cc0080] no frame!
[mpeg2video @ 0x557001c96dc0] Invalid frame dimensions 0x0.
[h264 @ 0x557001cc0080] non-existing PPS 0 referenced
    Last message repeated 1 times
[h264 @ 0x557001cc0080] decode_slice_header error
[h264 @ 0x557001cc0080] non-existing PPS 0 referenced
[h264 @ 0x557001cc0080] decode_slice_header error
[h264 @ 0x557001cc0080] non-existing PPS 0 referenced
[h264 @ 0x557001cc0080] decode_slice_header error
[h264 @ 0x557001cc0080] non-existing PPS 0 referenced
[h264 @ 0x557001cc0080] decode_slice_header error
[h264 @ 0x557001cc0080] non-existing PPS 0 referenced
[h264 @ 0x557001cc0080] decode_slice_header error
[h264 @ 0x557001cc0080] non-existing PPS 0 referenced
[h264 @ 0x557001cc0080] decode_slice_header error
[h264 @ 0x557001cc0080] no frame!
[mpeg2video @ 0x557001c96dc0] Invalid frame dimensions 0x0.
[h264 @ 0x557001cc0080] non-existing PPS 0 referenced
    Last message repeated 1 times
[h264 @ 0x557001cc0080] decode_slice_header error
[h264 @ 0x557001cc0080] non-existing PPS 0 referenced
[h264 @ 0x557001cc0080] decode_slice_header error
[h264 @ 0x557001cc0080] non-existing PPS 0 referenced
[h264 @ 0x557001cc0080] decode_slice_header error
[h264 @ 0x557001cc0080] non-existing PPS 0 referenced
[h264 @ 0x557001cc0080] decode_slice_header error
[h264 @ 0x557001cc0080] non-existing PPS 0 referenced
[h264 @ 0x557001cc0080] decode_slice_header error
[h264 @ 0x557001cc0080] non-existing PPS 0 referenced
[h264 @ 0x557001cc0080] decode_slice_header error
[h264 @ 0x557001cc0080] no frame!
[h264 @ 0x557001cc0080] non-existing PPS 0 referenced
    Last message repeated 1 times
[h264 @ 0x557001cc0080] decode_slice_header error
[h264 @ 0x557001cc0080] non-existing PPS 0 referenced
[h264 @ 0x557001cc0080] decode_slice_header error
[h264 @ 0x557001cc0080] non-existing PPS 0 referenced
[h264 @ 0x557001cc0080] decode_slice_header error
[h264 @ 0x557001cc0080] non-existing PPS 0 referenced
[h264 @ 0x557001cc0080] decode_slice_header error
[h264 @ 0x557001cc0080] non-existing PPS 0 referenced
[h264 @ 0x557001cc0080] decode_slice_header error
[h264 @ 0x557001cc0080] non-existing PPS 0 referenced
[h264 @ 0x557001cc0080] decode_slice_header error
[h264 @ 0x557001cc0080] no frame!
[mpeg2video @ 0x557001c96dc0] Invalid frame dimensions 0x0.
    Last message repeated 1 times
[h264 @ 0x557001cc0080] non-existing PPS 0 referenced
    Last message repeated 1 times
[h264 @ 0x557001cc0080] decode_slice_header error
[h264 @ 0x557001cc0080] non-existing PPS 0 referenced
[h264 @ 0x557001cc0080] decode_slice_header error
[h264 @ 0x557001cc0080] non-existing PPS 0 referenced
[h264 @ 0x557001cc0080] decode_slice_header error
[h264 @ 0x557001cc0080] non-existing PPS 0 referenced
[h264 @ 0x557001cc0080] decode_slice_header error
[h264 @ 0x557001cc0080] non-existing PPS 0 referenced
[h264 @ 0x557001cc0080] decode_slice_header error
[h264 @ 0x557001cc0080] non-existing PPS 0 referenced
[h264 @ 0x557001cc0080] decode_slice_header error
[h264 @ 0x557001cc0080] no frame!
[mpeg2video @ 0x557001c96dc0] Invalid frame dimensions 0x0.
    Last message repeated 1 times
[mpegts @ 0x557001c90800] PES packet size mismatch
    Last message repeated 2 times
Input #0, mpegts, from 'HD2-h264.ts':
  Duration: 00:01:04.75, start: 31309.702867, bitrate: 37500 kb/s
  Program 128 
    Metadata:
      service_name    : DPC.TV10
      service_provider: DPC
    Stream #0:0[0x1ff]: Video: mpeg2video (Main) ([2][0][0][0] / 0x0002), yuv420p(tv, progressive), 720x576 [SAR 16:15 DAR 4:3], 25 fps, 25 tbr, 90k tbn, 50 tbc
    Stream #0:1[0x200](ger): Audio: mp2 ([3][0][0][0] / 0x0003), 48000 Hz, stereo, fltp, 192 kb/s (clean effects)
  Program 129 
    Metadata:
      service_name    : DPC.TV11
      service_provider: DPC
    Stream #0:2[0x2ff]: Video: h264 (Main) ([27][0][0][0] / 0x001B), yuv420p(progressive), 1920x1088 [SAR 1:1 DAR 30:17], 29.97 fps, 29.97 tbr, 90k tbn
    Stream #0:3[0x304](eng): Audio: ac3 ([6][0][0][0] / 0x0006), 48000 Hz, stereo, fltp, 384 kb/s
Stream mapping:
  Stream #0:2 -> #0:0 (h264 (native) -> dvvideo (native))
  Stream #0:1 -> #0:1 (mp2 (native) -> pcm_s16le (native))
Press [q] to stop, [?] for help
Output #0, dv, to '/dev/null':
  Metadata:
    encoder         : Lavf58.12.100
    Stream #0:0: Video: dvvideo, yuv411p, 720x480 [SAR 20:17 DAR 30:17], q=2-31, 200 kb/s, 29.97 fps, 29.97 tbn, 29.97 tbc
    Metadata:
      encoder         : Lavc58.18.100 dvvideo
    Stream #0:1(ger): Audio: pcm_s16le, 48000 Hz, stereo, s16, 1536 kb/s (clean effects)
    Metadata:
      encoder         : Lavc58.18.100 pcm_s16le
[dv @ 0x557001cd4bc0] Can't process DV frame #0. Insufficient audio data or severe sync problem.
    Last message repeated 2 times
[h264 @ 0x557001d47cc0] Increasing reorder buffer to 1
frame=  180 fps=0.0 q=-0.0 size=   19456kB time=00:00:06.17 bitrate=25823.2kbits/s dup=8 drop=0 speed=12.3x    frame=  357 fps=356 q=-0.0 size=   40192kB time=00:00:12.19 bitrate=26996.6kbits/s dup=8 drop=0 speed=12.2x    frame=  529 fps=352 q=-0.0 size=   60416kB time=00:00:18.10 bitrate=27343.9kbits/s dup=8 drop=0 speed=  12x    frame=  704 fps=351 q=-0.0 size=   80896kB time=00:00:24.00 bitrate=27607.8kbits/s dup=8 drop=0 speed=  12x    frame=  864 fps=344 q=-0.0 size=   99840kB time=00:00:29.33 bitrate=27883.8kbits/s dup=10 drop=0 speed=11.7x    frame= 1025 fps=341 q=-0.0 size=  118528kB time=00:00:34.37 bitrate=28249.1kbits/s dup=11 drop=2 speed=11.4x    frame= 1193 fps=340 q=-0.0 size=  138240kB time=00:00:40.27 bitrate=28117.4kbits/s dup=13 drop=2 speed=11.5x    frame= 1359 fps=339 q=-0.0 size=  157696kB time=00:00:45.46 bitrate=28417.1kbits/s dup=15 drop=3 speed=11.3x    frame= 1523 fps=337 q=-0.0 size=  176896kB time=00:00:51.07 bitrate=28372.0kbits/s dup=16 drop=4 speed=11.3x    frame= 1691 fps=337 q=-0.0 size=  196608kB time=00:00:56.69 bitrate=28409.8kbits/s dup=17 drop=6 speed=11.3x    frame= 1860 fps=337 q=-0.0 size=  216320kB time=00:01:02.16 bitrate=28506.7kbits/s dup=21 drop=7 speed=11.3x    [mpegts @ 0x557001c90800] PES packet size mismatch
[h264 @ 0x557001cd3080] error while decoding MB 41 13, bytestream -26
[h264 @ 0x557001cd3080] concealing 6608 DC, 6608 AC, 6608 MV errors in P frame
[dv @ 0x557001cd4bc0] Can't process DV frame #1914. Insufficient audio data or severe sync problem.
    Last message repeated 2 times
frame= 1921 fps=336 q=-0.0 Lsize=  224297kB time=00:01:04.09 bitrate=28666.4kbits/s dup=23 drop=7 speed=11.2x    
video:225117kB audio:11974kB subtitle:0kB other streams:0kB global headers:0kB muxing overhead: unknown

 Performance counter stats for 'system wide' (5 runs):

            285,77 Joules power/energy-pkg/                                             ( +-  0,48% )
              8,74 Joules power/energy-ram/                                             ( +-  1,50% )

             6,027 +- 0,206 seconds time elapsed  ( +-  3,41% )

